<svg width="25" height="25" viewBox="0 0 25 25" fill="none" xmlns="http://www.w3.org/2000/svg">
<g clip-path="url(#clip0_744_211)">
<path fill-rule="evenodd" clip-rule="evenodd" d="M23.3809 12.9703C23.3809 18.7693 18.6798 23.4703 12.8809 23.4703C7.08187 23.4703 2.38086 18.7693 2.38086 12.9703C2.38086 7.17129 7.08187 2.47028 12.8809 2.47028C18.6798 2.47028 23.3809 7.17129 23.3809 12.9703ZM24.8809 12.9703C24.8809 19.5977 19.5083 24.9703 12.8809 24.9703C6.25344 24.9703 0.880859 19.5977 0.880859 12.9703C0.880859 6.34286 6.25344 0.970276 12.8809 0.970276C19.5083 0.970276 24.8809 6.34286 24.8809 12.9703ZM12.8809 9.35339C11.9144 9.35339 11.1309 10.1369 11.1309 11.1034C11.1309 11.5176 10.7951 11.8534 10.3809 11.8534C9.96665 11.8534 9.63086 11.5176 9.63086 11.1034C9.63086 9.30847 11.0859 7.85339 12.8809 7.85339C13.7024 7.85339 14.5054 8.08134 15.1193 8.57612C15.7505 9.08488 16.1309 9.83785 16.1309 10.7523C16.1309 11.3681 15.8638 11.8294 15.5544 12.1826C15.3428 12.4243 15.0646 12.6616 14.8291 12.8625L14.8291 12.8625L14.8288 12.8627C14.7565 12.9244 14.6882 12.9827 14.627 13.0367C14.0663 13.5314 13.6309 14.0271 13.6309 14.9919C13.6309 15.4061 13.2951 15.7419 12.8809 15.7419C12.4666 15.7419 12.1309 15.4061 12.1309 14.9919C12.1309 13.3921 12.9454 12.5199 13.6347 11.9118C13.7446 11.8149 13.8426 11.7312 13.9313 11.6554C14.1369 11.4798 14.2919 11.3475 14.426 11.1943C14.5855 11.0123 14.6309 10.8883 14.6309 10.7523C14.6309 10.286 14.4516 9.9645 14.178 9.74401C13.887 9.50952 13.44 9.35339 12.8809 9.35339ZM13.8809 18.4835C13.8809 19.0357 13.4331 19.4835 12.8809 19.4835C12.3286 19.4835 11.8809 19.0357 11.8809 18.4835C11.8809 17.9312 12.3286 17.4835 12.8809 17.4835C13.4331 17.4835 13.8809 17.9312 13.8809 18.4835Z" fill="white"/>
</g>
<defs>
<clipPath id="clip0_744_211">
<rect width="24" height="24" fill="white" transform="translate(0.880859 0.970276)"/>
</clipPath>
</defs>
</svg>
